# xmcd
# 
# Track frame offsets:
#     150
#     11622
#     23916
#     36722
#     52058
#     63209
#     76556
#     88461
#     102169
#     113504
#     123271
#     136187
#     148558
#     159919
#     177622
#     187217
#     199735
#     210869
# 
# Disc length: 2972
# 
# Revision: 1
# Processed by: cddbd v1.5.2PL0 Copyright (c) Steve Scherf et al.
# Submitted via: BonkEnc v1.0.15
# 
DISCID=f50b9a12
DTITLE=Dinah Washington - Dinah Washington (What A Diff'rence A Day Makes 18 Great Songs)
DYEAR=1992
DGENRE=Jazz
TTITLE0=What A diff'rence A Day Makes (S. Adams/ M Grever No.8 1959)
TTITLE1=Unforgettable (1. Gordon) No. 17 1959
TTITLE2=Mad About The Boy (N. Coward)
TTITLE3=Smoke Gets in Your Eyes (O. Harbasch/J. Kern)
TTITLE4=Such A Night (L. Chase)
TTITLE5=Time Out For Tears ( A. Schiff/ 1. Berman)
TTITLE6=Harbour Lights (J. Keneday/ H. Williams)
TTITLE7=Trust In Me (N. Wever/ J. Schwartz/ M. Ager)
TTITLE8=This Bitter Earth ( C. Oris)
TTITLE9=H. Warren)
TTITLE10=Make me a Present (Unknown)
TTITLE11=I Wanna Be Loved (B. Rose/ E. Heyman/ J. Green)
TTITLE12=Salthy Papa Blues ( Unknown)
TTITLE13=Mixed Emotions ( S. F. Louchheim)
TTITLE14=If I Were A Bell (F. Loesser)
TTITLE15=Teach Me Tonight ( S. Cahn/ G De Paul)
TTITLE16=If I Loved You (R. Rodgers/ O. Hammerstein)
TTITLE17=Keeping Out of Mischief Now ( A. Razaf/ F. Waller)
EXTD=YEAR: 1992
EXTT0=
EXTT1=
EXTT2=
EXTT3=
EXTT4=
EXTT5=
EXTT6=
EXTT7=
EXTT8=
EXTT9=
EXTT10=
EXTT11=
EXTT12=
EXTT13=
EXTT14=
EXTT15=
EXTT16=
EXTT17=
PLAYORDER=
